<?xml version="1.0" encoding="UTF-8"?>
<!-- Generated by Pixelmator Pro 3.7.1 -->
<svg width="424" height="155" viewBox="0 0 424 155" xmlns="http://www.w3.org/2000/svg">
    <text id="l" xml:space="preserve" x="-25" y="-85" font-family="Raleway" font-size="15" font-weight="600" fill="#b6b6b6" letter-spacing="-0.3">l</text>
    <text id="ertica" xml:space="preserve" x="-67" y="-85" font-family="Raleway" font-size="15" font-weight="600" fill="#b6b6b6" letter-spacing="0.15">ertica</text>
    <text id="V" xml:space="preserve" x="-76" y="-85" font-family="Raleway" font-size="15" font-weight="600" fill="#b6b6b6" letter-spacing="-0.75">V</text>
    <text id="e" xml:space="preserve" x="13" y="-103" font-family="Raleway" font-size="15" font-weight="600" fill="#72253d" letter-spacing="0.15">e</text>
    <text id="t" xml:space="preserve" x="8" y="-103" font-family="Raleway" font-size="15" font-weight="600" fill="#72253d">t</text>
    <text id="a" xml:space="preserve" x="-1" y="-103" font-family="Raleway" font-size="15" font-weight="600" fill="#72253d" letter-spacing="0.15">a</text>
    <text id="r" xml:space="preserve" x="-7" y="-103" font-family="Raleway" font-size="15" font-weight="600" fill="#72253d">r</text>
    <text id="SU-Corpo" xml:space="preserve" x="-76" y="-103" font-family="Raleway" font-size="15" font-weight="600" fill="#72253d" letter-spacing="0.15">SU Corpo</text>
    <path id="Path" fill="#caa258" stroke="none" d="M 67.520004 26.5 C 67.520004 11.639999 73.940002 4.229996 77.490005 0.850006 L 77.089996 0.139999 C 21.650002 0.139999 6.940002 0.139999 3.629997 0.139999 L 3.230003 0.139999 C 3.169998 0.139999 3.089996 0.139999 3.010002 0.139999 C 2.980003 0.139999 2.949997 0.139999 2.919998 0.139999 C 2.839996 0.139999 2.800003 0.139999 2.779999 0.139999 L 2.779999 8.350006 L 6.529999 8.350006 L 6.529999 80.62001 C 6.529999 90.380005 6.809998 103.820007 12.330002 116.32 C 17.760002 128.609985 25.480003 137.779999 38.879997 137.779999 C 52.279999 137.779999 66.550003 123.219994 49.589996 100.430008 C 36.980003 83.480011 14.919998 68.130005 14.919998 32.979996 C 14.919998 18.380005 20.220001 10.889999 22.510002 8.339996 L 37.620003 8.339996 C 35.910004 10.660004 31.18 18.26001 31.18 31.229996 C 31.18 73.580002 75 87.360001 75 118.439995 C 75 133.26001 63.179993 149.01001 49.959999 151.01001 L 49.75 152.339996 C 53.279999 153.690002 57.169998 154.690002 60.809998 155.329987 C 65.979996 155.109985 109.470001 143.109985 109.470001 105.310005 C 109.470001 67.51001 67.520004 58.940002 67.520004 26.490005 Z M 15.480003 70.040009 C 15.580002 70.020004 15.900002 69.820007 15.989998 69.810013 C 22.68 85.730011 39.690002 99.810013 45.25 113.129997 C 49.209999 122.620003 45.610001 129.279999 39.019997 129.279999 C 23.82 129.279999 15.470001 106.969994 15.470001 81.710007 L 15.470001 70.040009 Z M 73.229996 143.670013 C 73.080002 143.519989 73.039993 143.420013 72.929993 143.299988 C 78.710007 138.799988 85.570007 130.269989 85.570007 118.260002 C 85.570007 82.690002 40.949997 69.240005 40.949997 29.990005 C 40.949997 18.12001 45.779999 10.669998 47.529999 8.37001 L 61.910004 8.37001 C 60.419998 10.970001 57.580002 17.62001 57.580002 27.470001 C 57.580002 63.330002 99.339996 73.980011 99.339996 106.749992 C 99.339996 125.989998 83.080002 140.190002 73.220001 143.690002 Z"/>
    <path id="path1" fill="#caa258" stroke="none" d="M 3.099998 0.139999 C 3.029999 0.139999 2.970001 0.139999 2.919998 0.139999 C 2.949997 0.139999 2.980003 0.139999 3.010002 0.139999 C 3.040001 0.139999 3.07 0.139999 3.099998 0.139999 Z"/>
    <path id="path2" fill="#caa258" stroke="none" d="M 109.179993 0.139999 C 102.75 0.139999 97.520004 1.460007 92.759995 5.089996 C 91.639999 5.949997 83.410004 12.610001 83.410004 23.51001 C 83.410004 36.75 92.139999 46.639999 101.669998 56.180008 C 109.050003 63.560013 112.639999 68.26001 114.149994 70.820007 L 115.100006 70.550003 L 115.100006 8.360001 L 118.869995 8.360001 C 118.869995 8.199997 118.869995 -0.110001 118.869995 0.139999 L 109.169998 0.139999 Z M 106.25 49.190002 C 106.179993 49.210007 105.949997 49.320007 105.839996 49.350006 C 101.880005 44.080002 91.970001 34.860001 91.970001 23.410004 C 91.970001 16.800003 96.440002 10.809998 101.149994 9.160004 C 102.570007 8.669998 103.919998 8.62001 105.399994 8.62001 C 105.940002 8.62001 105.699997 8.62001 106.259995 8.62001 L 106.259995 49.190002 Z"/>
    <path id="path3" fill="#ffffff" stroke="none" d="M 143.100006 38.529999 L 146.199997 38.320007 C 146.309998 38.690002 146.360001 39.12001 146.470001 39.440002 C 147.429993 42.600006 150.050003 45.270004 153.690002 45.270004 C 157.009995 45.270004 160.479996 43.130005 160.479996 39.059998 C 160.479996 34.669998 156.520004 32.589996 151.279999 30.449997 C 146.520004 28.470001 142.399994 25.26001 142.399994 19.800003 C 142.399994 13.589996 147.910004 10.059998 154.330002 10.059998 C 157.110001 10.059998 160.380005 10.699997 163.160004 11.820007 C 163.479996 11.930008 163.860001 12.089996 164.179993 12.199997 L 163.479996 18.990005 L 160.320007 18.830002 C 160.320007 18.51001 160.210007 18.130005 160.160004 17.809998 C 159.460007 15.240005 157.110001 13.419998 153.850006 13.419998 C 150.589996 13.419998 148.070007 15.290009 148.070007 18.559998 C 148.070007 21.449997 150.100006 23.050003 155.130005 25.089996 C 160.800003 27.389999 166.690002 31.559998 166.690002 38.139999 C 166.690002 44.720001 160.429993 48.790009 153.369995 48.790009 C 149.679993 48.790009 146.630005 47.559998 143.419998 45.960007 L 143.100006 38.520004 Z"/>
    <path id="path4" fill="#ffffff" stroke="none" d="M 184.559998 46.080002 C 182.73999 47.740005 180.600006 48.809998 177.979996 48.809998 C 173.270004 48.809998 172.100006 45.169998 172.100006 41.110001 L 172.100006 24.850006 L 169.479996 24.850006 L 169.479996 21.100006 C 172.259995 21.100006 173.330002 19.070007 173.440002 16.710007 L 173.550003 13.660004 L 178.100006 13.660004 L 178.100006 21.100006 L 184.359985 21.100006 L 184.359985 22.440002 C 184.359985 24.100006 183.130005 24.850006 181.579987 24.850006 L 178.100006 24.850006 L 178.100006 41.600006 C 178.100006 43.580002 178.899994 45.290009 180.830002 45.290009 C 181.899994 45.290009 182.920013 44.699997 183.660004 44.220001 L 184.570007 46.089996 Z"/>
    <path id="path5" fill="#ffffff" stroke="none" d="M 208.820007 43.720001 C 206.630005 47.040009 202.670013 48.800003 198.76001 48.800003 C 190.149994 48.800003 185.440002 41.680008 185.440002 33.770004 C 185.440002 26.600006 191.059998 20.5 198.390015 20.5 C 203.040009 20.5 207.859985 22.75 208.980011 27.080002 C 209.25 27.880005 209.410004 28.740005 209.410004 29.699997 C 209.410004 34.520004 205.23999 36.389999 200.369995 36.389999 L 191.76001 36.389999 C 191.970001 40.779999 194.920013 44.900009 199.459991 45.160004 C 203.100006 45.160004 205.179993 44.300003 207.859985 42 L 208.820007 43.710007 Z M 195.070007 32.860001 C 199.320007 32.860001 203.73999 32.850006 203.73999 28.949997 C 203.73999 26.330002 201.709991 23.919998 198.709991 23.919998 C 194.109985 23.919998 191.76001 28.790009 191.76001 32.850006 L 195.079987 32.850006 Z"/>
    <path id="path6" fill="#ffffff" stroke="none" d="M 214.390015 12 C 214.390015 10.880005 213.369995 10.770004 212.570007 10.770004 L 212.089996 10.770004 L 212.089996 8.360001 L 216.369995 8.360001 C 219.690002 8.360001 220.380005 10.020004 220.380005 12.960007 L 220.380005 43.240005 C 220.380005 44.580002 220.76001 44.949997 221.829987 45.490005 L 221.829987 48.160004 L 212.899994 48.160004 L 212.899994 45.490005 C 213.970001 44.949997 214.399994 44.580002 214.399994 43.240005 L 214.399994 12 Z"/>
    <path id="path7" fill="#ffffff" stroke="none" d="M 227.649994 12 C 227.649994 10.880005 226.630005 10.770004 225.829987 10.770004 L 225.350006 10.770004 L 225.350006 8.360001 L 229.630005 8.360001 C 232.950012 8.360001 233.640015 10.020004 233.640015 12.960007 L 233.640015 43.240005 C 233.640015 44.580002 234.019989 44.949997 235.089996 45.490005 L 235.089996 48.160004 L 226.160004 48.160004 L 226.160004 45.490005 C 227.230011 44.949997 227.660004 44.580002 227.660004 43.240005 L 227.660004 12 Z"/>
    <path id="path8" fill="#ffffff" stroke="none" d="M 261.399994 43.720001 C 259.209991 47.040009 255.25 48.800003 251.339996 48.800003 C 242.730011 48.800003 238.019989 41.680008 238.019989 33.770004 C 238.019989 26.600006 243.640015 20.5 250.970001 20.5 C 255.619995 20.5 260.440002 22.75 261.559998 27.080002 C 261.829987 27.880005 261.98999 28.740005 261.98999 29.699997 C 261.98999 34.520004 257.820007 36.389999 252.950012 36.389999 L 244.339996 36.389999 C 244.549988 40.779999 247.5 44.900009 252.040009 45.160004 C 255.679993 45.160004 257.76001 44.300003 260.440002 42 L 261.399994 43.710007 Z M 247.649994 32.860001 C 251.899994 32.860001 256.320007 32.850006 256.320007 28.949997 C 256.320007 26.330002 254.290009 23.919998 251.290009 23.919998 C 246.690002 23.919998 244.329987 28.790009 244.329987 32.850006 L 247.649994 32.850006 Z"/>
    <path id="path9" fill="#ffffff" stroke="none" d="M 265.769989 48.160004 L 265.769989 45.430008 C 266.140015 45.430008 266.470001 45.320007 266.679993 45.110001 C 267.160004 44.740005 267.269989 43.880005 267.269989 43.240005 L 267.269989 24.360001 C 267.269989 23.610001 266.839996 23.240005 266.200012 23.130005 C 265.929993 23.020004 265.609985 23.020004 265.290009 23.020004 L 265.290009 20.669998 L 269.299988 20.669998 C 272.350006 20.669998 272.98999 22.330002 273.049988 24.199997 C 275.029999 21.790009 277.649994 20.720001 280.700012 20.720001 C 286.640015 20.720001 289.209991 24.790009 289.209991 30.029999 L 289.209991 43.240005 C 289.209991 43.880005 289.26001 44.630005 289.799988 45.110001 C 290.01001 45.320007 290.279999 45.430008 290.709991 45.430008 L 290.709991 48.160004 L 281.720001 48.160004 L 281.720001 45.430008 C 283.059998 45.430008 283.220001 44.360001 283.220001 43.240005 L 283.220001 29.87001 C 283.220001 27.199997 281.880005 24.360001 278.829987 24.360001 C 276.100006 24.360001 273.910004 26.5 273.109985 29.01001 L 273.109985 43.240005 C 273.109985 43.669998 273.109985 44.199997 273.320007 44.630005 C 273.369995 44.790009 273.480011 44.949997 273.640015 45.110001 C 273.910004 45.320007 274.179993 45.430008 274.600006 45.430008 L 274.600006 48.160004 L 265.769989 48.160004 Z"/>
    <path id="path10" fill="#ffffff" stroke="none" d="M 291.959991 8.350006 L 296.290009 8.350006 C 299.709991 8.350006 300.299988 10 300.299988 12.790009 L 300.299988 23.01001 C 301.799988 21.240005 304.420013 20.5 306.829987 20.5 C 314.640015 20.5 318.709991 27.779999 318.709991 34.729996 C 318.709991 42.589996 314.059998 48.800003 305.230011 48.800003 C 299.290009 48.800003 294.480011 45.970001 294.480011 39.76001 L 294.480011 11.990005 C 294.480011 11.240005 293.950012 10.970001 293.410004 10.87001 C 293.089996 10.76001 292.769989 10.76001 292.450012 10.76001 L 291.970001 10.76001 L 291.970001 8.350006 Z M 300.299988 39.979996 C 300.299988 43.350006 301.850006 45.490005 305.01001 45.490005 C 310.679993 45.490005 312.230011 38.75 312.230011 34.199997 C 312.230011 30.080002 310.779999 24.360001 305.700012 24.360001 C 303.670013 24.360001 301.26001 25.540009 300.299988 27.410004 L 300.299988 39.979996 Z"/>
    <path id="path11" fill="#ffffff" stroke="none" d="M 334.959991 20.51001 C 342.820007 20.51001 348.329987 26.979996 348.329987 34.529999 C 348.329987 42.080002 342.820007 48.809998 334.959991 48.809998 C 327.100006 48.809998 321.480011 41.910004 321.480011 34.37001 C 321.480011 26.830002 327.200012 20.51001 334.959991 20.51001 Z M 334.899994 45.440002 C 340.459991 45.440002 341.690002 38.809998 341.690002 34.690002 C 341.690002 30.25 340.25 23.880005 334.679993 23.880005 C 329.109985 23.880005 327.940002 29.979996 327.940002 34.309998 C 327.940002 38.320007 329.119995 45.440002 334.890015 45.440002 Z"/>
    <path id="path12" fill="#ffffff" stroke="none" d="M 351.320007 40.940002 L 354.26001 40.940002 C 355.059998 43.940002 357.309998 45.809998 360.470001 45.809998 C 362.929993 45.809998 365.119995 44.630005 365.119995 42.330002 C 365.119995 40.779999 364.100006 39.820007 362.820007 39.070007 C 361.959991 38.589996 361.049988 38.160004 360.149994 37.729996 C 355.980011 35.970001 350.679993 33.660004 350.679993 28.37001 C 350.679993 23.660004 354.799988 20.51001 360.899994 20.51001 C 363.359985 20.51001 366.570007 20.990005 368.76001 21.900009 L 369.079987 22.01001 L 369.079987 27.949997 L 365.980011 27.949997 C 365.230011 25.279999 363.25 23.720001 360.420013 23.720001 C 357.589996 23.720001 356.140015 25.380005 356.140015 26.820007 C 356.140015 28.960007 359.079987 30.62001 362.079987 32.01001 C 362.720001 32.330002 363.359985 32.600006 364.01001 32.919998 C 367.589996 34.580002 370.910004 36.290009 370.910004 40.839996 C 370.910004 47.790009 363.26001 48.809998 360.100006 48.809998 C 356.940002 48.809998 354.320007 47.949997 351.649994 46.62001 L 351.329987 46.460007 L 351.329987 40.949997 Z"/>
    <path id="path13" fill="#ffffff" stroke="none" d="M 396.779999 43.400009 L 396.779999 43.449997 C 394.369995 46.449997 390.950012 48.800003 386.940002 48.800003 C 378.380005 48.800003 373.51001 42.589996 373.51001 34.779999 C 373.51001 26.970001 378.540009 20.5 386.940002 20.5 C 390.200012 20.5 392.5 20.930008 395.230011 22.210007 C 395.549988 22.320007 395.869995 22.479996 396.25 22.639999 L 396.25 27.940002 L 393.200012 27.940002 C 393.040009 27.570007 392.929993 27.190002 392.720001 26.87001 C 391.76001 24.889999 389.98999 23.610001 387.529999 23.610001 C 381.910004 23.610001 380.040009 29.979996 380.040009 34.580002 C 380.040009 39.180008 382.070007 45.12001 387.959991 45.12001 C 390.73999 45.12001 392.98999 43.839996 394.649994 41.860001 C 394.970001 41.540009 395.23999 41.160004 395.450012 40.790009 L 396.790009 43.410004 Z"/>
    <path id="path14" fill="#ffffff" stroke="none" d="M 398.929993 48.160004 L 398.929993 45.490005 L 399.200012 45.380005 C 399.679993 45.110001 400.429993 44.680008 400.429993 43.240005 L 400.429993 12 C 400.429993 10.930008 399.25 10.770004 398.399994 10.770004 L 397.920013 10.770004 L 397.920013 8.360001 L 402.410004 8.360001 C 406.320007 8.360001 406.549988 10.589996 406.559998 13.710007 C 406.559998 16.169998 406.589996 23.550003 406.589996 23.550003 C 408.359985 21.460007 410.279999 20.660004 412.850006 20.660004 C 418.730011 20.660004 422.160004 24.729996 422.160004 29.699997 L 422.160004 43.240005 C 422.160004 44.520004 422.589996 44.949997 423.660004 45.490005 L 423.660004 48.160004 L 414.670013 48.160004 L 414.670013 45.490005 C 415.690002 45.110001 416.269989 44.37001 416.269989 43.240005 L 416.269989 29.87001 C 416.269989 26.87001 414.450012 24.470001 411.880005 24.25 C 409.209991 24.25 407.230011 25.800003 406.26001 28.210007 L 406.26001 43.240005 C 406.26001 44.199997 406.640015 44.740005 407.380005 45.169998 C 407.540009 45.279999 407.809998 45.380005 408.019989 45.490005 L 408.019989 48.160004 L 398.929993 48.160004 Z"/>
    <path id="path15" fill="#ffffff" stroke="none" d="M 151.229996 83 C 152.080002 83 152.789993 82.830002 153.369995 82.480011 C 153.949997 82.130005 154.419998 81.680008 154.770004 81.130005 C 155.119995 80.580002 155.380005 79.940002 155.520004 79.220001 C 155.669998 78.5 155.740005 77.76001 155.740005 77 L 155.740005 67.590012 L 159.300003 67.590012 L 159.300003 77 C 159.300003 78.270004 159.149994 79.450012 158.839996 80.560013 C 158.539993 81.670013 158.059998 82.639999 157.410004 83.470001 C 156.759995 84.300003 155.919998 84.960007 154.899994 85.450012 C 153.880005 85.940002 152.660004 86.180008 151.229996 86.180008 C 149.800003 86.180008 148.5 85.920013 147.470001 85.410004 C 146.440002 84.900009 145.600006 84.220001 144.960007 83.380005 C 144.320007 82.540009 143.850006 81.560013 143.570007 80.460007 C 143.279999 79.350006 143.139999 78.200012 143.139999 77 L 143.139999 67.590012 L 146.729996 67.590012 L 146.729996 77 C 146.729996 77.780014 146.800003 78.530014 146.949997 79.25 C 147.100006 79.970001 147.350006 80.610001 147.699997 81.160004 C 148.050003 81.710007 148.520004 82.160004 149.089996 82.5 C 149.660004 82.840012 150.360001 83.01001 151.199997 83.01001 Z"/>
    <path id="path16" fill="#ffffff" stroke="none" d="M 170.080002 74.210007 L 170.080002 86.040009 L 166.490005 86.040009 L 166.490005 67.580002 L 169.270004 67.580002 L 178.889999 79.700012 L 178.889999 67.610001 L 182.480011 67.610001 L 182.480011 86.040009 L 179.570007 86.040009 L 170.080002 74.210007 Z"/>
    <path id="path17" fill="#ffffff" stroke="none" d="M 189.890015 86.040009 L 189.890015 67.580002 L 193.480011 67.580002 L 193.480011 86.040009 L 189.890015 86.040009 Z"/>
    <path id="path18" fill="#ffffff" stroke="none" d="M 202.790009 67.580002 L 207.779999 81.540009 L 212.720001 67.580002 L 216.48999 67.580002 L 209.290009 86.040009 L 206.269989 86.040009 L 199.019989 67.580002 L 202.790009 67.580002 Z"/>
    <path id="path19" fill="#ffffff" stroke="none" d="M 234.839996 82.889999 L 234.839996 86.040009 L 222.019989 86.040009 L 222.019989 67.580002 L 234.600006 67.580002 L 234.600006 70.730011 L 225.600006 70.730011 L 225.600006 75.180008 L 233.369995 75.180008 L 233.369995 78.090012 L 225.600006 78.090012 L 225.600006 82.900009 L 234.829987 82.900009 Z"/>
    <path id="path20" fill="#ffffff" stroke="none" d="M 241.209991 86.040009 L 241.209991 67.580002 L 249.369995 67.580002 C 250.220001 67.580002 251 67.76001 251.720001 68.110001 C 252.440002 68.460007 253.059998 68.930008 253.579987 69.51001 C 254.100006 70.090012 254.51001 70.75 254.799988 71.490005 C 255.089996 72.230011 255.23999 72.970001 255.23999 73.710007 C 255.23999 74.910004 254.940002 75.990005 254.339996 76.970001 C 253.73999 77.950012 252.929993 78.660004 251.910004 79.090012 L 256.119995 86.030014 L 252.089996 86.030014 L 248.320007 79.840012 L 244.779999 79.840012 L 244.779999 86.030014 L 241.190002 86.030014 Z M 244.799988 76.710007 L 249.299988 76.710007 C 249.630005 76.710007 249.940002 76.630005 250.220001 76.480011 C 250.51001 76.320007 250.75 76.110001 250.959991 75.840012 C 251.170013 75.570007 251.329987 75.26001 251.450012 74.889999 C 251.570007 74.530014 251.630005 74.139999 251.630005 73.720001 C 251.630005 73.300003 251.559998 72.889999 251.420013 72.520004 C 251.279999 72.160004 251.089996 71.840012 250.859985 71.570007 C 250.630005 71.300003 250.359985 71.090012 250.049988 70.950012 C 249.73999 70.810013 249.440002 70.730011 249.130005 70.730011 L 244.790009 70.730011 L 244.790009 76.710007 Z"/>
    <path id="path21" fill="#ffffff" stroke="none" d="M 273.059998 72.420013 C 272.940002 72.300003 272.720001 72.130005 272.399994 71.930008 C 272.079987 71.730011 271.690002 71.520004 271.230011 71.320007 C 270.769989 71.12001 270.269989 70.950012 269.73999 70.810013 C 269.200012 70.670013 268.660004 70.600006 268.100006 70.600006 C 267.109985 70.600006 266.380005 70.780014 265.890015 71.150009 C 265.399994 71.51001 265.160004 72.030014 265.160004 72.680008 C 265.160004 73.060013 265.25 73.380005 265.429993 73.630005 C 265.609985 73.880005 265.880005 74.100006 266.220001 74.290009 C 266.559998 74.480011 267 74.650009 267.529999 74.810013 C 268.059998 74.970001 268.670013 75.130005 269.359985 75.300003 C 270.26001 75.540009 271.079987 75.800003 271.820007 76.080002 C 272.559998 76.360001 273.179993 76.700012 273.690002 77.12001 C 274.200012 77.540009 274.589996 78.030014 274.869995 78.62001 C 275.149994 79.200012 275.290009 79.920013 275.290009 80.76001 C 275.290009 81.75 275.100006 82.590012 274.730011 83.300003 C 274.359985 84.01001 273.850006 84.570007 273.220001 85 C 272.589996 85.430008 271.859985 85.75 271.040009 85.950012 C 270.220001 86.150009 269.350006 86.25 268.450012 86.25 C 267.059998 86.25 265.690002 86.040009 264.339996 85.630005 C 262.98999 85.220001 261.769989 84.630005 260.700012 83.860001 L 262.290009 80.770004 C 262.450012 80.930008 262.730011 81.130005 263.130005 81.380005 C 263.529999 81.630005 264.019989 81.880005 264.570007 82.130005 C 265.119995 82.380005 265.73999 82.590012 266.420013 82.770004 C 267.100006 82.940002 267.790009 83.030014 268.5 83.030014 C 270.480011 83.030014 271.459991 82.400009 271.459991 81.130005 C 271.459991 80.730011 271.350006 80.389999 271.119995 80.12001 C 270.890015 79.850006 270.570007 79.600006 270.160004 79.389999 C 269.75 79.180008 269.23999 78.990005 268.649994 78.820007 C 268.059998 78.650009 267.399994 78.460007 266.670013 78.25 C 265.790009 78.01001 265.019989 77.740005 264.369995 77.460007 C 263.720001 77.180008 263.179993 76.840012 262.75 76.450012 C 262.320007 76.060013 261.98999 75.610001 261.779999 75.100006 C 261.559998 74.590012 261.450012 73.980011 261.450012 73.270004 C 261.450012 72.330002 261.619995 71.5 261.970001 70.770004 C 262.320007 70.040009 262.799988 69.440002 263.410004 68.950012 C 264.029999 68.470001 264.73999 68.100006 265.559998 67.850006 C 266.369995 67.600006 267.25 67.470001 268.179993 67.470001 C 269.480011 67.470001 270.679993 67.670013 271.769989 68.080002 C 272.859985 68.490005 273.809998 68.970001 274.630005 69.520004 L 273.040009 72.430008 Z"/>
    <path id="path22" fill="#ffffff" stroke="none" d="M 281.570007 86.040009 L 281.570007 67.580002 L 285.160004 67.580002 L 285.160004 86.040009 L 281.570007 86.040009 Z"/>
    <path id="path23" fill="#ffffff" stroke="none" d="M 306.369995 70.730011 L 300.470001 70.730011 L 300.470001 86.040009 L 296.910004 86.040009 L 296.910004 70.730011 L 291.01001 70.730011 L 291.01001 67.580002 L 306.380005 67.580002 L 306.380005 70.730011 Z"/>
    <path id="path24" fill="#ffffff" stroke="none" d="M 314.299988 67.580002 L 318.850006 76.470001 L 323.480011 67.580002 L 327.350006 67.580002 L 320.640015 79.590012 L 320.640015 86.040009 L 317.079987 86.040009 L 317.079987 79.540009 L 310.399994 67.580002 L 314.299988 67.580002 Z"/>
    <path id="path25" fill="#ffffff" stroke="none" d="M 143.169998 114.209999 L 143.169998 95.75 L 146.759995 95.75 L 146.759995 114.209999 L 143.169998 114.209999 Z"/>
    <path id="path26" fill="#ffffff" stroke="none" d="M 156.25 95.75 L 160.800003 104.639999 L 165.429993 95.75 L 169.300003 95.75 L 162.589996 107.760002 L 162.589996 114.209999 L 159.029999 114.209999 L 159.029999 107.709999 L 152.350006 95.75 L 156.25 95.75 Z"/>
    <path id="path27" fill="#ffffff" stroke="none" d="M 182.690002 111.159996 C 183.540009 111.159996 184.25 110.989998 184.829987 110.639992 C 185.410004 110.290001 185.880005 109.840004 186.230011 109.290001 C 186.579987 108.739998 186.839996 108.099998 186.980011 107.379997 C 187.130005 106.659996 187.200012 105.920006 187.200012 105.159996 L 187.200012 95.75 L 190.76001 95.75 L 190.76001 105.159996 C 190.76001 106.43 190.609985 107.609993 190.299988 108.719994 C 190 109.829994 189.519989 110.799995 188.869995 111.629997 C 188.220001 112.459999 187.380005 113.120003 186.359985 113.609993 C 185.339996 114.099998 184.109985 114.340004 182.690002 114.340004 C 181.269989 114.340004 179.960007 114.079994 178.929993 113.57 C 177.899994 113.060005 177.059998 112.379997 176.419998 111.540001 C 175.779999 110.700005 175.309998 109.719994 175.029999 108.620003 C 174.75 107.519997 174.600006 106.359993 174.600006 105.159996 L 174.600006 95.75 L 178.190002 95.75 L 178.190002 105.159996 C 178.190002 105.939995 178.259995 106.689995 178.410004 107.409996 C 178.559998 108.129997 178.809998 108.769997 179.160004 109.32 C 179.509995 109.870003 179.979996 110.32 180.550003 110.659996 C 181.119995 110.999992 181.820007 111.170006 182.660004 111.170006 Z"/>
    <path id="path28" fill="#ffffff" stroke="none" d="M 201.540009 102.380005 L 201.540009 114.209999 L 197.950012 114.209999 L 197.950012 95.75 L 200.730011 95.75 L 210.350006 107.870003 L 210.350006 95.780014 L 213.940002 95.780014 L 213.940002 114.209999 L 211.029999 114.209999 L 201.540009 102.380005 Z"/>
    <path id="path29" fill="#ffffff" stroke="none" d="M 221.350006 114.209999 L 221.350006 95.75 L 224.940002 95.75 L 224.940002 114.209999 L 221.350006 114.209999 Z"/>
    <path id="path30" fill="#ffffff" stroke="none" d="M 234.25 95.75 L 239.23999 109.709999 L 244.179993 95.75 L 247.950012 95.75 L 240.75 114.209999 L 237.730011 114.209999 L 230.480011 95.75 L 234.25 95.75 Z"/>
    <path id="path31" fill="#ffffff" stroke="none" d="M 266.299988 111.060005 L 266.299988 114.209999 L 253.480011 114.209999 L 253.480011 95.75 L 266.059998 95.75 L 266.059998 98.900009 L 257.059998 98.900009 L 257.059998 103.350006 L 264.829987 103.350006 L 264.829987 106.260002 L 257.059998 106.260002 L 257.059998 111.07 L 266.290009 111.07 Z"/>
    <path id="path32" fill="#ffffff" stroke="none" d="M 283.279999 100.580002 C 283.160004 100.460007 282.940002 100.290009 282.619995 100.090012 C 282.299988 99.880005 281.910004 99.680008 281.450012 99.480011 C 280.98999 99.280014 280.48999 99.110001 279.950012 98.970001 C 279.410004 98.830002 278.869995 98.76001 278.309998 98.76001 C 277.320007 98.76001 276.579987 98.940002 276.100006 99.310013 C 275.619995 99.670013 275.369995 100.190002 275.369995 100.840012 C 275.369995 101.220001 275.459991 101.540009 275.640015 101.790009 C 275.820007 102.040009 276.089996 102.26001 276.429993 102.450012 C 276.779999 102.639999 277.220001 102.810013 277.73999 102.970001 C 278.269989 103.130005 278.880005 103.290009 279.570007 103.460007 C 280.470001 103.700012 281.290009 103.960007 282.029999 104.240005 C 282.769989 104.520004 283.390015 104.860001 283.899994 105.280006 C 284.410004 105.700005 284.809998 106.189995 285.079987 106.780006 C 285.350006 107.370003 285.5 108.079994 285.5 108.920006 C 285.5 109.909996 285.309998 110.749992 284.940002 111.459999 C 284.570007 112.170006 284.059998 112.730003 283.429993 113.159996 C 282.799988 113.590004 282.070007 113.909996 281.25 114.109993 C 280.429993 114.310005 279.559998 114.409996 278.660004 114.409996 C 277.269989 114.409996 275.899994 114.200005 274.549988 113.790001 C 273.200012 113.370003 271.980011 112.790001 270.910004 112.019997 L 272.5 108.93 C 272.660004 109.090004 272.940002 109.290001 273.350006 109.540001 C 273.76001 109.790001 274.23999 110.040001 274.790009 110.290001 C 275.339996 110.540001 275.959991 110.749992 276.640015 110.93 C 277.320007 111.099998 278.01001 111.189995 278.720001 111.189995 C 280.700012 111.189995 281.679993 110.560005 281.679993 109.290001 C 281.679993 108.889992 281.570007 108.549995 281.339996 108.280006 C 281.119995 107.999992 280.799988 107.760002 280.380005 107.549995 C 279.959991 107.340004 279.459991 107.150002 278.869995 106.980003 C 278.279999 106.810005 277.619995 106.620003 276.890015 106.409996 C 276.01001 106.170006 275.23999 105.900002 274.589996 105.620003 C 273.940002 105.329994 273.399994 105 272.970001 104.610001 C 272.540009 104.220001 272.209991 103.770004 271.98999 103.26001 C 271.769989 102.75 271.660004 102.139999 271.660004 101.430008 C 271.660004 100.490005 271.829987 99.660004 272.179993 98.930008 C 272.529999 98.200012 273.01001 97.600006 273.619995 97.110001 C 274.23999 96.630005 274.950012 96.26001 275.769989 96.01001 C 276.579987 95.76001 277.459991 95.630005 278.399994 95.630005 C 279.700012 95.630005 280.899994 95.830002 281.98999 96.240005 C 283.079987 96.650009 284.029999 97.130005 284.850006 97.680008 L 283.26001 100.590012 Z"/>
    <path id="path33" fill="#ffffff" stroke="none" d="M 291.779999 114.209999 L 291.779999 95.75 L 295.369995 95.75 L 295.369995 114.209999 L 291.779999 114.209999 Z"/>
    <path id="path34" fill="#ffffff" stroke="none" d="M 316.589996 98.889999 L 310.690002 98.889999 L 310.690002 114.200005 L 307.130005 114.200005 L 307.130005 98.889999 L 301.230011 98.889999 L 301.230011 95.740005 L 316.600006 95.740005 L 316.600006 98.889999 Z"/>
    <path id="path35" fill="#ffffff" stroke="none" d="M 337.959991 95.75 L 337.959991 114.209999 L 334.399994 114.209999 L 334.399994 106.329994 L 326.029999 106.329994 L 326.029999 114.209999 L 322.440002 114.209999 L 322.440002 95.75 L 326.029999 95.75 L 326.029999 103.210007 L 334.399994 103.210007 L 334.399994 95.75 L 337.959991 95.75 Z"/>
    <path id="path36" fill="#ffffff" stroke="none" d="M 345.369995 114.209999 L 345.369995 95.75 L 348.959991 95.75 L 348.959991 114.209999 L 345.369995 114.209999 Z"/>
    <path id="path37" fill="#ffffff" stroke="none" d="M 151.229996 139.329987 C 152.080002 139.329987 152.789993 139.160004 153.380005 138.809998 C 153.970001 138.459991 154.429993 138.01001 154.779999 137.459991 C 155.130005 136.910004 155.389999 136.269989 155.529999 135.549988 C 155.679993 134.829987 155.75 134.089996 155.75 133.329987 L 155.75 123.920006 L 159.309998 123.920006 L 159.309998 133.329987 C 159.309998 134.600006 159.160004 135.779999 158.850006 136.889984 C 158.550003 138 158.070007 138.970001 157.419998 139.799988 C 156.770004 140.630005 155.929993 141.290009 154.910004 141.779999 C 153.889999 142.269989 152.660004 142.51001 151.240005 142.51001 C 149.820007 142.51001 148.509995 142.25 147.479996 141.73999 C 146.449997 141.230011 145.610001 140.549988 144.970001 139.709991 C 144.330002 138.869995 143.869995 137.889984 143.580002 136.790009 C 143.289993 135.679993 143.149994 134.529999 143.149994 133.329987 L 143.149994 123.920006 L 146.740005 123.920006 L 146.740005 133.329987 C 146.740005 134.109985 146.809998 134.859985 146.960007 135.579987 C 147.110001 136.299988 147.360001 136.940002 147.710007 137.48999 C 148.059998 138.040009 148.529999 138.48999 149.100006 138.829987 C 149.669998 139.170013 150.369995 139.339996 151.210007 139.339996 Z"/>
    <path id="path38" fill="#ffffff" stroke="none" d="M 170.080002 130.540009 L 170.080002 142.369995 L 166.490005 142.369995 L 166.490005 123.909996 L 169.270004 123.909996 L 178.889999 136.029999 L 178.889999 123.939995 L 182.480011 123.939995 L 182.480011 142.369995 L 179.570007 142.369995 L 170.080002 130.540009 Z"/>
    <path id="path39" fill="#ffffff" stroke="none" d="M 189.890015 142.369995 L 189.890015 123.909996 L 193.480011 123.909996 L 193.480011 142.369995 L 189.890015 142.369995 Z"/>
    <path id="path40" fill="#ffffff" stroke="none" d="M 202.790009 123.909996 L 207.779999 137.869995 L 212.720001 123.909996 L 216.48999 123.909996 L 209.290009 142.369995 L 206.269989 142.369995 L 199.019989 123.909996 L 202.790009 123.909996 Z"/>
    <path id="path41" fill="#ffffff" stroke="none" d="M 234.839996 139.220001 L 234.839996 142.369995 L 222.019989 142.369995 L 222.019989 123.909996 L 234.600006 123.909996 L 234.600006 127.060005 L 225.600006 127.060005 L 225.600006 131.51001 L 233.369995 131.51001 L 233.369995 134.420013 L 225.600006 134.420013 L 225.600006 139.230011 L 234.829987 139.230011 Z"/>
    <path id="path42" fill="#ffffff" stroke="none" d="M 241.209991 142.369995 L 241.209991 123.909996 L 249.369995 123.909996 C 250.220001 123.909996 251 124.090004 251.720001 124.439995 C 252.440002 124.799995 253.059998 125.260002 253.579987 125.840004 C 254.100006 126.420006 254.51001 127.079994 254.799988 127.82 C 255.089996 128.559998 255.23999 129.299988 255.23999 130.040009 C 255.23999 131.23999 254.940002 132.320007 254.339996 133.299988 C 253.73999 134.279999 252.929993 134.98999 251.910004 135.420013 L 256.119995 142.359985 L 252.089996 142.359985 L 248.320007 136.170013 L 244.779999 136.170013 L 244.779999 142.359985 L 241.190002 142.359985 Z M 244.799988 133.029999 L 249.299988 133.029999 C 249.630005 133.029999 249.940002 132.950012 250.220001 132.799988 C 250.51001 132.639984 250.75 132.429993 250.959991 132.160004 C 251.170013 131.889984 251.329987 131.579987 251.450012 131.209991 C 251.570007 130.850006 251.630005 130.459991 251.630005 130.040009 C 251.630005 129.619995 251.559998 129.209991 251.420013 128.839996 C 251.279999 128.480011 251.100006 128.160004 250.859985 127.889992 C 250.619995 127.620003 250.359985 127.409996 250.049988 127.269997 C 249.75 127.120003 249.440002 127.049995 249.130005 127.049995 L 244.790009 127.049995 L 244.790009 133.029999 Z"/>
    <path id="path43" fill="#ffffff" stroke="none" d="M 273.059998 128.73999 C 272.940002 128.619995 272.720001 128.450012 272.399994 128.25 C 272.079987 128.040009 271.690002 127.840004 271.230011 127.639992 C 270.769989 127.439995 270.269989 127.269997 269.73999 127.129997 C 269.200012 126.989998 268.660004 126.920006 268.100006 126.920006 C 267.109985 126.920006 266.380005 127.099998 265.890015 127.469994 C 265.399994 127.829994 265.160004 128.350006 265.160004 129 C 265.160004 129.380005 265.25 129.700012 265.429993 129.950012 C 265.609985 130.200012 265.880005 130.420013 266.220001 130.609985 C 266.570007 130.799988 267 130.970001 267.529999 131.130005 C 268.059998 131.290009 268.670013 131.450012 269.359985 131.619995 C 270.26001 131.859985 271.079987 132.119995 271.820007 132.399994 C 272.559998 132.679993 273.179993 133.019989 273.690002 133.440002 C 274.200012 133.859985 274.600006 134.350006 274.869995 134.940002 C 275.149994 135.519989 275.290009 136.23999 275.290009 137.079987 C 275.290009 138.070007 275.100006 138.910004 274.730011 139.619995 C 274.359985 140.320007 273.850006 140.889984 273.220001 141.320007 C 272.589996 141.75 271.859985 142.070007 271.040009 142.269989 C 270.220001 142.470001 269.350006 142.570007 268.450012 142.570007 C 267.059998 142.570007 265.690002 142.359985 264.339996 141.950012 C 262.98999 141.529999 261.779999 140.950012 260.700012 140.179993 L 262.290009 137.089996 C 262.450012 137.25 262.730011 137.450012 263.130005 137.700012 C 263.540009 137.950012 264.019989 138.200012 264.570007 138.450012 C 265.119995 138.700012 265.73999 138.910004 266.420013 139.089996 C 267.100006 139.26001 267.790009 139.350006 268.5 139.350006 C 270.480011 139.350006 271.459991 138.720001 271.459991 137.450012 C 271.459991 137.049988 271.350006 136.709991 271.119995 136.440002 C 270.890015 136.160004 270.570007 135.920013 270.160004 135.709991 C 269.75 135.5 269.23999 135.309998 268.649994 135.139984 C 268.059998 134.970001 267.399994 134.779999 266.670013 134.570007 C 265.790009 134.329987 265.019989 134.059998 264.369995 133.779999 C 263.720001 133.48999 263.179993 133.160004 262.75 132.769989 C 262.320007 132.380005 261.98999 131.929993 261.779999 131.420013 C 261.559998 130.910004 261.459991 130.299988 261.459991 129.589996 C 261.459991 128.649994 261.630005 127.82 261.980011 127.090004 C 262.329987 126.359993 262.809998 125.760002 263.420013 125.269997 C 264.040009 124.790001 264.75 124.420006 265.559998 124.170006 C 266.369995 123.920006 267.25 123.790001 268.190002 123.790001 C 269.48999 123.790001 270.690002 123.989998 271.779999 124.400002 C 272.869995 124.810005 273.820007 125.290001 274.640015 125.840004 L 273.049988 128.75 Z"/>
    <path id="path44" fill="#ffffff" stroke="none" d="M 281.570007 142.369995 L 281.570007 123.909996 L 285.160004 123.909996 L 285.160004 142.369995 L 281.570007 142.369995 Z"/>
    <path id="path45" fill="#ffffff" stroke="none" d="M 306.369995 127.049995 L 300.470001 127.049995 L 300.470001 142.359985 L 296.910004 142.359985 L 296.910004 127.049995 L 291.01001 127.049995 L 291.01001 123.900002 L 306.380005 123.900002 L 306.380005 127.049995 Z"/>
    <path id="path46" fill="#ffffff" stroke="none" d="M 325.040009 139.220001 L 325.040009 142.369995 L 312.220001 142.369995 L 312.220001 123.909996 L 324.799988 123.909996 L 324.799988 127.060005 L 315.799988 127.060005 L 315.799988 131.51001 L 323.570007 131.51001 L 323.570007 134.420013 L 315.799988 134.420013 L 315.799988 139.230011 L 325.029999 139.230011 Z"/>
    <path id="path47" fill="#ffffff" stroke="none" d="M 331.410004 142.369995 L 331.410004 123.909996 L 335 123.909996 L 335 142.369995 L 331.410004 142.369995 Z"/>
    <path id="path48" fill="#ffffff" stroke="none" d="M 356.209991 127.049995 L 350.309998 127.049995 L 350.309998 142.359985 L 346.75 142.359985 L 346.75 127.049995 L 340.850006 127.049995 L 340.850006 123.900002 L 356.220001 123.900002 L 356.220001 127.049995 Z"/>
</svg>
